<svg id="Capa_1" enable-background="new 0 0 512 512" height="512" viewBox="0 0 512 512" width="512" xmlns="http://www.w3.org/2000/svg"><g><path d="m479.111 7.703c-10.588-10.573-28.502-10.025-38.315 1.165l-74.215 83.815c-11.057-10.137-24.638-17.562-39.689-21.186-4.002-19.1-14.171-36.497-29.032-49.424-16.363-14.234-37.33-22.073-59.039-22.073-21.466 0-42.253 7.683-58.533 21.634-14.491 12.417-24.626 29.104-29.005 47.489-18.587.909-36.076 7.395-50.826 18.917-3.264 2.55-3.843 7.263-1.293 10.527 2.549 3.262 7.263 3.844 10.527 1.293 13.283-10.376 29.235-15.86 46.13-15.86 28.13 0 53.979 15.915 66.755 40.806-4.349 10.548-6.755 22.095-6.755 34.194 0 3.785.244 7.559.712 11.292h-134.862c-.561-3.72-.849-7.498-.849-11.292 0-12.097 2.946-24.114 8.519-34.75 1.922-3.669.506-8.202-3.163-10.125-3.668-1.921-8.202-.506-10.125 3.163-6.694 12.776-10.232 27.2-10.232 41.712 0 3.785.244 7.559.712 11.292h-16.211c-13.785 0-25 11.215-25 25 0 10.745 6.815 19.927 16.348 23.455v.584c0 89.838 62.958 165.243 147.068 184.427.003 6.781-.543 13.583-1.648 20.295-2.188 13.313-6.491 26.056-12.792 37.946h-48.976c-13.785 0-25 11.215-25 25s11.215 25 25 25h210.999c13.785 0 25-11.215 25-25s-11.215-25-25-25h-49.264c-7.334-12.129-12.257-25.785-14.282-39.74-.871-6.039-1.211-12.152-1.028-18.24 47.072-10.402 88.878-38.54 116.356-79.577 2.305-3.441 1.383-8.101-2.059-10.405-3.443-2.303-8.101-1.382-10.405 2.06-32.446 48.457-86.583 77.387-144.817 77.387-95.706 0-173.619-77.604-174.139-173.191h348.279c-.124 23.174-4.716 45.653-13.671 66.825-1.613 3.815.171 8.216 3.986 9.829 3.732 1.578 8.196-.123 9.829-3.985 9.865-23.325 14.867-48.097 14.867-73.629v-.584c9.534-3.528 16.348-12.71 16.348-23.455 0-13.785-11.215-25-25-25h-16.211c.468-3.734.712-7.507.712-11.292 0-12.122-2.418-23.686-6.782-34.25l88.916-78.727c11.216-9.852 11.63-27.862 1.155-38.322zm-196.209 469.297c.005 0 .011.001.016.001s.009-.001.014-.001h53.389c5.514 0 10 4.486 10 10s-4.486 10-10 10h-210.999c-5.514 0-10-4.486-10-10s4.486-10 10-10h53.388c.005 0 .01.001.015.001s.01-.001.015-.001zm-81.011-50.513c1.086-6.599 1.685-13.28 1.815-19.956 8.858 1.277 17.908 1.952 27.114 1.952 8.731 0 17.371-.62 25.882-1.791-.024 5.919.38 11.846 1.226 17.714 1.889 13.018 5.979 25.803 11.974 37.593h-78.87c5.191-11.281 8.833-23.179 10.859-35.512zm178.93-267.487c0 3.794-.289 7.573-.849 11.292h-148.301c-.561-3.72-.849-7.498-.849-11.292 0-41.355 33.645-75 75-75s74.999 33.645 74.999 75zm-214.188-89.331c3.986-14.154 12.109-26.956 23.415-36.645 13.564-11.623 30.885-18.024 48.773-18.024 18.09 0 35.561 6.531 49.194 18.39 10.966 9.539 18.879 21.989 22.863 35.755-1.674-.093-3.36-.145-5.057-.145-31.263 0-58.849 16.026-74.988 40.291-14.528-21.859-38.067-36.437-64.2-39.622zm244.688 115.623c5.514 0 10 4.486 10 10s-4.486 10-10 10h-360.999c-5.514 0-10-4.486-10-10s4.486-10 10-10zm56.689-150.497-86.093 76.227c-1.586-2.506-3.291-4.929-5.11-7.26l75.219-84.95c4.213-4.827 11.936-5.039 16.474-.506 4.532 4.525 4.349 12.256-.49 16.489z"/></g></svg>