<svg id="Layer_1" enable-background="new 0 0 512 512" height="512" viewBox="0 0 512 512" width="512" xmlns="http://www.w3.org/2000/svg"><g><g><path d="m396.366 41.879c-3.462-2.274-8.113-1.312-10.386 2.151-2.274 3.462-1.311 8.111 2.151 10.386 68.17 44.777 108.869 120.136 108.869 201.584 0 132.888-108.112 241-241 241s-241-108.112-241-241 108.112-241 241-241c36.89 0 72.29 8.114 105.216 24.117 3.725 1.812 8.214.259 10.024-3.467 1.811-3.726.258-8.213-3.467-10.023-34.986-17.005-72.592-25.627-111.773-25.627-68.38 0-132.667 26.629-181.02 74.98-48.351 48.352-74.98 112.64-74.98 181.02s26.629 132.668 74.98 181.02c48.353 48.351 112.64 74.98 181.02 74.98s132.667-26.629 181.02-74.98c48.351-48.352 74.98-112.64 74.98-181.02 0-86.517-43.228-166.562-115.634-214.121z"/><path d="m257.5 180c0-35.014-28.486-63.5-63.5-63.5s-63.5 28.486-63.5 63.5 28.486 63.5 63.5 63.5 63.5-28.486 63.5-63.5zm-112 0c0-26.743 21.757-48.5 48.5-48.5s48.5 21.757 48.5 48.5-21.757 48.5-48.5 48.5-48.5-21.757-48.5-48.5z"/><path d="m346.844 360.461c2.397-9.897.796-20.136-4.508-28.828l-6.642-10.887c-5.303-8.693-13.675-14.801-23.572-17.197-9.898-2.396-20.136-.796-28.828 4.508l-24.545 14.976c-17.945 10.948-23.637 34.455-12.689 52.4l6.642 10.887c7.175 11.761 19.744 18.259 32.607 18.259 3.823 0 7.669-.597 11.411-1.777l5.301 8.682c4.429 7.244 12.182 11.247 20.113 11.247 4.166 0 8.381-1.104 12.188-3.424.128-.078.253-.16.375-.245 10.759-6.838 14.112-21.123 7.445-32.066l-5.278-8.649c4.863-4.886 8.317-11.017 9.98-17.886zm-81.338 18.046-6.642-10.887c-6.64-10.885-3.188-25.143 7.697-31.783l24.545-14.976c3.674-2.241 7.803-3.393 12-3.393 1.826 0 3.665.218 5.485.658 6.003 1.454 11.08 5.158 14.297 10.432l6.642 10.887c3.217 5.272 4.188 11.482 2.734 17.485s-5.158 11.081-10.431 14.298l-24.545 14.975c-10.883 6.64-25.141 3.188-31.782-7.696zm61.008 27.98c-.077.047-.153.095-.228.144-3.973 2.257-9.067.953-11.466-2.969l-4.708-7.711 14.519-8.858 4.704 7.709c2.44 4.006 1.175 9.248-2.821 11.685z"/><path d="m375.738 321.536c6.858-1.701 12.969-5.188 17.825-10.074l8.686 5.231c3.709 2.234 7.864 3.381 12.084 3.381 1.899 0 3.811-.232 5.701-.701 6.091-1.512 11.23-5.306 14.469-10.683 3.239-5.378 4.19-11.694 2.679-17.786-1.512-6.091-5.306-11.229-10.683-14.468l-8.678-5.229c2.055-6.58 2.284-13.616.582-20.478-2.451-9.885-8.604-18.223-17.326-23.478l-10.923-6.582c-8.722-5.256-18.968-6.8-28.853-4.35-9.884 2.451-18.221 8.604-23.477 17.326l-14.84 24.627c-5.256 8.723-6.801 18.969-4.35 28.853s8.604 18.222 17.326 23.478l10.923 6.582c6.017 3.626 12.76 5.485 19.609 5.485 3.08.002 6.18-.374 9.246-1.134zm46.887-27.018c.547 2.203.203 4.487-.969 6.433-1.172 1.945-3.03 3.317-5.233 3.864-2.204.547-4.488.202-6.433-.97l-7.744-4.665 8.773-14.559 7.742 4.664c1.945 1.172 3.317 3.03 3.864 5.233zm-67.998 9.821-10.923-6.582c-10.921-6.581-14.452-20.819-7.871-31.74l14.84-24.627c3.188-5.291 8.245-9.022 14.24-10.51 1.86-.461 3.739-.688 5.607-.688 4.154 0 8.244 1.128 11.894 3.327l10.923 6.582c5.29 3.188 9.022 8.245 10.509 14.239 1.487 5.995.55 12.211-2.638 17.501l-14.84 24.627c-3.188 5.291-8.245 9.022-14.24 10.51-5.997 1.486-12.211.549-17.501-2.639z"/><path d="m441.689 141.503c2.644-29.475-19.137-55.999-48.554-59.127-7.621-.811-15.151-.028-22.229 2.209-34.029-22.868-73.671-34.935-114.906-34.935-10.575 0-21.185.817-31.567 2.412-9.772-2.324-19.96-3.562-30.433-3.562-72.509 0-131.5 58.99-131.5 131.5 0 1.34.035 2.676.075 4.011-8.57 22.988-12.925 47.197-12.925 71.989 0 33.238 7.663 64.976 22.775 94.328 13.77 26.744 33.578 50.494 57.425 68.95.071 8.248 4.484 16.229 12.231 20.467 3.563 1.942 7.414 2.863 11.213 2.863 3.466 0 6.886-.777 10.01-2.235 28.558 14.377 60.507 21.977 92.696 21.977 49.046 0 96.58-17.506 133.844-49.292 3.151-2.688 3.527-7.422.839-10.573-2.688-3.152-7.422-3.527-10.573-.839-34.552 29.472-78.629 45.704-124.11 45.704-28.149 0-56.091-6.268-81.384-18.153l4.218-7.719c3.163.841 6.41 1.274 9.675 1.274 3.607 0 7.236-.518 10.794-1.563 9.771-2.869 17.839-9.371 22.719-18.309l6.112-11.193c10.074-18.45 3.26-41.656-15.19-51.731l-25.236-13.779c-8.938-4.879-19.241-5.987-29.011-3.118-9.771 2.869-17.839 9.371-22.719 18.309l-6.112 11.192c-8.568 15.692-4.914 34.818 7.717 46.386l-2.783 5.097c-44.081-36.174-70.15-90.824-70.15-148.043 0-12.63 1.226-25.094 3.637-37.297 3.859 12.553 9.608 24.511 17.147 35.519 2.341 3.417 7.009 4.29 10.426 1.949 3.417-2.34 4.291-7.008 1.95-10.426-13.287-19.399-20.31-42.134-20.31-65.745 0-64.238 52.262-116.5 116.5-116.5s116.5 52.262 116.5 116.5-52.262 116.5-116.5 116.5c-27.903 0-54.895-10.017-76.003-28.203-3.138-2.704-7.874-2.353-10.577.786-2.704 3.138-2.352 7.874.786 10.577 23.83 20.532 54.299 31.84 85.794 31.84 72.509 0 131.5-58.99 131.5-131.5 0-49.656-27.668-92.967-68.395-115.339 34.975.198 68.677 9.757 98.25 27.782-.893.648-1.775 1.316-2.636 2.023-11.394 9.358-18.395 22.599-19.713 37.282-2.688 29.925 19.441 56.462 49.421 59.218.041.004.082.009.123.012.984.087 1.785.629 2.04 1.379 4.898 14.399 17.881 24.287 33.077 25.19.726.044 1.447.064 2.167.064 8.102 0 15.768-2.708 22.019-7.314 3.647 14.88 5.498 30.199 5.498 45.703 0 45.365-16.158 89.355-45.498 123.867-2.683 3.155-2.299 7.889.856 10.571 1.411 1.2 3.137 1.786 4.854 1.786 2.124 0 4.234-.897 5.718-2.643 31.643-37.22 49.069-84.66 49.069-133.581 0-20.398-2.968-40.509-8.815-59.829 1.484-3.128 2.548-6.497 3.096-10.048 1.812-11.752-2.126-23.764-10.536-32.132-3.264-3.248-4.888-7.61-4.455-11.977zm-292.419 285.077c-3.322-1.817-4.95-5.537-4.274-9.066.009-.04.014-.08.023-.119.166-.803.45-1.595.863-2.351l4.333-7.936 14.924 8.148-4.331 7.927c-2.248 4.117-7.429 5.637-11.538 3.397zm-6.239-66.832 6.112-11.193c2.96-5.421 7.854-9.365 13.78-11.105 2.158-.633 4.359-.947 6.547-.947 3.821 0 7.603.957 11.05 2.84l25.236 13.779c11.191 6.11 15.324 20.186 9.214 31.376l-6.112 11.194c-2.96 5.421-7.854 9.365-13.78 11.105-5.926 1.737-12.176 1.069-17.597-1.893l-25.236-13.779c-11.191-6.11-15.325-20.187-9.214-31.377zm298.775-175.912c-1.725 11.18-11.935 19.403-23.249 18.738-9.082-.541-16.84-6.447-19.767-15.049-2.167-6.365-8.015-10.873-14.905-11.488-.029-.003-.056-.005-.078-.007-21.726-1.952-37.813-21.215-35.863-42.94.957-10.646 6.033-20.247 14.294-27.033 3.093-2.541 6.488-4.566 10.083-6.047.092-.032.181-.069.271-.105 5.931-2.392 12.397-3.312 18.955-2.612 21.327 2.268 37.117 21.5 35.201 42.862l-.037.389c-.879 8.862 2.329 17.64 8.802 24.081 5.1 5.072 7.393 12.075 6.293 19.211z"/></g></g></svg>